<?xml version="1.0" encoding="UTF-8" standalone="no"?>
<svg
   xmlns:dc="http://purl.org/dc/elements/1.1/"
   xmlns:cc="http://creativecommons.org/ns#"
   xmlns:rdf="http://www.w3.org/1999/02/22-rdf-syntax-ns#"
   xmlns:svg="http://www.w3.org/2000/svg"
   xmlns="http://www.w3.org/2000/svg"
   xmlns:sodipodi="http://sodipodi.sourceforge.net/DTD/sodipodi-0.dtd"
   xmlns:inkscape="http://www.inkscape.org/namespaces/inkscape"
   enable-background="new 0 0 39 115"
   height="115px"
   id="Layer_1"
   version="1.1"
   viewBox="0 0 39 115"
   width="39px"
   xml:space="preserve"
   inkscape:version="0.91 r13725"
   sodipodi:docname="info.hover.svg"><metadata
     id="metadata13"><rdf:RDF><cc:Work
         rdf:about=""><dc:format>image/svg+xml</dc:format><dc:type
           rdf:resource="http://purl.org/dc/dcmitype/StillImage" /><dc:title></dc:title></cc:Work></rdf:RDF></metadata><defs
     id="defs11" /><sodipodi:namedview
     pagecolor="#ffffff"
     bordercolor="#666666"
     borderopacity="1"
     objecttolerance="10"
     gridtolerance="10"
     guidetolerance="10"
     inkscape:pageopacity="0"
     inkscape:pageshadow="2"
     inkscape:window-width="681"
     inkscape:window-height="480"
     id="namedview9"
     showgrid="false"
     inkscape:zoom="2.0521739"
     inkscape:cx="19.5"
     inkscape:cy="57.5"
     inkscape:window-x="57"
     inkscape:window-y="21"
     inkscape:window-maximized="0"
     inkscape:current-layer="Layer_1" /><g
     id="g3"
     style="fill:#c83737;fill-opacity:1"><path
       d="M26.102,91.63l3.372-13.589l7.465-30.088c1.33-5.36-1.938-10.783-7.298-12.113l-0.971-0.241   c-0.652-0.162-1.303-0.252-1.949-0.283l0.008-0.199c0,0-0.161,0.072-0.437,0.197c-3.072-0.011-7.561,2.97-7.561,2.97   c-8.72,6.079-20.654,14.141-18.886,17.981c2.678,5.816,15.748-9.487,12.618,3.131L9.091,72.984l-7.465,30.088   c-1.33,5.361,1.504,10.676,6.864,12.006l0.971,0.241c0.652,0.161,1.303,0.253,1.95,0.282l-0.009,0.199c0,0,0.162-0.071,0.438-0.197   c3.072,0.012,7.561-2.97,7.561-2.97c8.72-6.079,20.871-14.087,19.103-17.928C35.824,88.89,22.972,104.247,26.102,91.63z"
       id="path5"
       style="fill:#c83737;fill-opacity:1" /><circle
       cx="24.727"
       cy="15.217"
       r="14"
       id="circle7"
       style="fill:#c83737;fill-opacity:1" /></g></svg>