<?xml version="1.0" encoding="UTF-8" standalone="no"?>
<svg
   xmlns:dc="http://purl.org/dc/elements/1.1/"
   xmlns:cc="http://creativecommons.org/ns#"
   xmlns:rdf="http://www.w3.org/1999/02/22-rdf-syntax-ns#"
   xmlns:svg="http://www.w3.org/2000/svg"
   xmlns="http://www.w3.org/2000/svg"
   xmlns:sodipodi="http://sodipodi.sourceforge.net/DTD/sodipodi-0.dtd"
   xmlns:inkscape="http://www.inkscape.org/namespaces/inkscape"
   height="60px"
   version="1.1"
   viewBox="0 0 60 60"
   width="60px"
   id="svg2"
   inkscape:version="0.91 r13725"
   sodipodi:docname="location.hover.svg">
  <metadata
     id="metadata16">
    <rdf:RDF>
      <cc:Work
         rdf:about="">
        <dc:format>image/svg+xml</dc:format>
        <dc:type
           rdf:resource="http://purl.org/dc/dcmitype/StillImage" />
      </cc:Work>
    </rdf:RDF>
  </metadata>
  <sodipodi:namedview
     pagecolor="#ffffff"
     bordercolor="#666666"
     borderopacity="1"
     objecttolerance="10"
     gridtolerance="10"
     guidetolerance="10"
     inkscape:pageopacity="0"
     inkscape:pageshadow="2"
     inkscape:window-width="1309"
     inkscape:window-height="747"
     id="namedview14"
     showgrid="false"
     inkscape:zoom="3.9333333"
     inkscape:cx="30"
     inkscape:cy="30"
     inkscape:window-x="57"
     inkscape:window-y="21"
     inkscape:window-maximized="1"
     inkscape:current-layer="svg2" />
  <title
     id="title4" />
  <defs
     id="defs6" />
  <g
     fill="none"
     fill-rule="evenodd"
     id="flat"
     stroke="none"
     stroke-width="1">
    <g
       id="location">
      <path
         d="M30,60 C46.5685433,60 60,46.5685433 60,30 C60,13.4314567 46.5685433,0 30,0 C13.4314567,0 0,13.4314567 0,30 C0,46.5685433 13.4314567,60 30,60 Z"
         fill="#CE6F2D"
         id="path10"
         style="fill:none" />
      <path
         d="M17.3076923,25.3846154 C17.3076923,31.7576923 28.8461538,46.6631611 28.8461538,46.2583571 C28.8461538,45.8535532 40.3846154,31.7576923 40.3846154,25.3846154 C40.3846154,19.0115385 35.2153846,13.8461538 28.8461538,13.8461538 C22.4769231,13.8461538 17.3076923,19.0115385 17.3076923,25.3846154 Z M23.0769231,24.2307692 C23.0769231,27.4173077 25.6615385,30 28.8461538,30 C32.0307692,30 34.6153846,27.4173077 34.6153846,24.2307692 C34.6153846,21.0442308 32.0307692,18.4615385 28.8461538,18.4615385 C25.6615385,18.4615385 23.0769231,21.0442308 23.0769231,24.2307692 Z"
         fill="#FFFFFF"
         id="path12"
         style="fill:#c83737" />
    </g>
  </g>
</svg>
